<mxfile host="app.diagrams.net" modified="2023-06-12T12:27:32.038Z" agent="Mozilla/5.0 (Macintosh; Intel Mac OS X 10_15_7) AppleWebKit/537.36 (KHTML, like Gecko) Chrome/109.0.0.0 Safari/537.36" etag="IftXelqmyqGKuf3o2tNq" version="21.3.2" type="github">
  <diagram name="Page-1" id="z1CORknT1N7jtZPOD_Wm">
    <mxGraphModel dx="954" dy="938" grid="1" gridSize="10" guides="1" tooltips="1" connect="1" arrows="1" fold="1" page="0" pageScale="1" pageWidth="850" pageHeight="1100" math="0" shadow="0">
      <root>
        <mxCell id="0" />
        <mxCell id="1" parent="0" />
        <mxCell id="TV3zGwWv0whd9TTQY8Pc-18" style="edgeStyle=orthogonalEdgeStyle;rounded=0;orthogonalLoop=1;jettySize=auto;html=1;" edge="1" parent="1" source="TV3zGwWv0whd9TTQY8Pc-6" target="TV3zGwWv0whd9TTQY8Pc-15">
          <mxGeometry relative="1" as="geometry" />
        </mxCell>
        <object label="CLIENTES" tecnology="Python3" id="TV3zGwWv0whd9TTQY8Pc-6">
          <mxCell style="rounded=1;whiteSpace=wrap;html=1;fillColor=#d5e8d4;strokeColor=#82b366;" vertex="1" parent="1">
            <mxGeometry x="581" y="30" width="120" height="60" as="geometry" />
          </mxCell>
        </object>
        <mxCell id="TV3zGwWv0whd9TTQY8Pc-19" style="edgeStyle=orthogonalEdgeStyle;rounded=0;orthogonalLoop=1;jettySize=auto;html=1;entryX=0;entryY=0.5;entryDx=0;entryDy=0;entryPerimeter=0;" edge="1" parent="1" source="TV3zGwWv0whd9TTQY8Pc-7" target="TV3zGwWv0whd9TTQY8Pc-16">
          <mxGeometry relative="1" as="geometry" />
        </mxCell>
        <object label="PRODUTOS" tecnology="Java" id="TV3zGwWv0whd9TTQY8Pc-7">
          <mxCell style="rounded=1;whiteSpace=wrap;html=1;fillColor=#dae8fc;strokeColor=#6c8ebf;" vertex="1" parent="1">
            <mxGeometry x="581" y="190" width="120" height="60" as="geometry" />
          </mxCell>
        </object>
        <mxCell id="TV3zGwWv0whd9TTQY8Pc-22" style="edgeStyle=orthogonalEdgeStyle;rounded=0;orthogonalLoop=1;jettySize=auto;html=1;" edge="1" parent="1" source="TV3zGwWv0whd9TTQY8Pc-9" target="TV3zGwWv0whd9TTQY8Pc-14">
          <mxGeometry relative="1" as="geometry" />
        </mxCell>
        <mxCell id="TV3zGwWv0whd9TTQY8Pc-9" value="USUÁRIO" style="shape=umlActor;verticalLabelPosition=bottom;verticalAlign=top;html=1;outlineConnect=0;" vertex="1" parent="1">
          <mxGeometry x="90" y="30" width="30" height="60" as="geometry" />
        </mxCell>
        <mxCell id="TV3zGwWv0whd9TTQY8Pc-27" style="edgeStyle=orthogonalEdgeStyle;rounded=0;orthogonalLoop=1;jettySize=auto;html=1;" edge="1" parent="1" source="TV3zGwWv0whd9TTQY8Pc-11" target="TV3zGwWv0whd9TTQY8Pc-6">
          <mxGeometry relative="1" as="geometry" />
        </mxCell>
        <mxCell id="TV3zGwWv0whd9TTQY8Pc-28" style="edgeStyle=orthogonalEdgeStyle;rounded=0;orthogonalLoop=1;jettySize=auto;html=1;" edge="1" parent="1" source="TV3zGwWv0whd9TTQY8Pc-11" target="TV3zGwWv0whd9TTQY8Pc-7">
          <mxGeometry relative="1" as="geometry" />
        </mxCell>
        <object label="VENDA" tecnology="Pythom3" id="TV3zGwWv0whd9TTQY8Pc-11">
          <mxCell style="rounded=1;whiteSpace=wrap;html=1;fillColor=#fff2cc;strokeColor=#d6b656;" vertex="1" parent="1">
            <mxGeometry x="425" y="120" width="120" height="60" as="geometry" />
          </mxCell>
        </object>
        <mxCell id="TV3zGwWv0whd9TTQY8Pc-24" style="edgeStyle=orthogonalEdgeStyle;rounded=0;orthogonalLoop=1;jettySize=auto;html=1;" edge="1" parent="1" source="TV3zGwWv0whd9TTQY8Pc-14" target="TV3zGwWv0whd9TTQY8Pc-6">
          <mxGeometry relative="1" as="geometry" />
        </mxCell>
        <mxCell id="TV3zGwWv0whd9TTQY8Pc-25" style="edgeStyle=orthogonalEdgeStyle;rounded=0;orthogonalLoop=1;jettySize=auto;html=1;entryX=0;entryY=0.75;entryDx=0;entryDy=0;" edge="1" parent="1" source="TV3zGwWv0whd9TTQY8Pc-14" target="TV3zGwWv0whd9TTQY8Pc-11">
          <mxGeometry relative="1" as="geometry">
            <Array as="points">
              <mxPoint x="300" y="120" />
              <mxPoint x="393" y="120" />
              <mxPoint x="393" y="165" />
            </Array>
          </mxGeometry>
        </mxCell>
        <mxCell id="TV3zGwWv0whd9TTQY8Pc-26" style="edgeStyle=orthogonalEdgeStyle;rounded=0;orthogonalLoop=1;jettySize=auto;html=1;" edge="1" parent="1" source="TV3zGwWv0whd9TTQY8Pc-14" target="TV3zGwWv0whd9TTQY8Pc-7">
          <mxGeometry relative="1" as="geometry">
            <Array as="points">
              <mxPoint x="300" y="220" />
            </Array>
          </mxGeometry>
        </mxCell>
        <object label="WEB / FRONT" tecnology="angular" id="TV3zGwWv0whd9TTQY8Pc-14">
          <mxCell style="rounded=1;whiteSpace=wrap;html=1;fillColor=#ffe6cc;strokeColor=#d79b00;" vertex="1" parent="1">
            <mxGeometry x="240" y="30" width="120" height="60" as="geometry" />
          </mxCell>
        </object>
        <mxCell id="TV3zGwWv0whd9TTQY8Pc-15" value="DB" style="shape=cylinder3;whiteSpace=wrap;html=1;boundedLbl=1;backgroundOutline=1;size=15;" vertex="1" parent="1">
          <mxGeometry x="781" y="20" width="60" height="80" as="geometry" />
        </mxCell>
        <mxCell id="TV3zGwWv0whd9TTQY8Pc-16" value="DB" style="shape=cylinder3;whiteSpace=wrap;html=1;boundedLbl=1;backgroundOutline=1;size=15;" vertex="1" parent="1">
          <mxGeometry x="781" y="180" width="60" height="80" as="geometry" />
        </mxCell>
        <mxCell id="TV3zGwWv0whd9TTQY8Pc-29" value="" style="image;sketch=0;aspect=fixed;html=1;points=[];align=center;fontSize=12;image=img/lib/mscae/Docker.svg;" vertex="1" parent="1">
          <mxGeometry x="281.7" y="-6" width="36.59" height="30" as="geometry" />
        </mxCell>
        <mxCell id="TV3zGwWv0whd9TTQY8Pc-30" value="" style="image;sketch=0;aspect=fixed;html=1;points=[];align=center;fontSize=12;image=img/lib/mscae/Docker.svg;" vertex="1" parent="1">
          <mxGeometry x="622" y="-8" width="36.59" height="30" as="geometry" />
        </mxCell>
        <mxCell id="TV3zGwWv0whd9TTQY8Pc-31" value="" style="image;sketch=0;aspect=fixed;html=1;points=[];align=center;fontSize=12;image=img/lib/mscae/Docker.svg;" vertex="1" parent="1">
          <mxGeometry x="467" y="84" width="36.59" height="30" as="geometry" />
        </mxCell>
        <mxCell id="TV3zGwWv0whd9TTQY8Pc-32" value="" style="image;sketch=0;aspect=fixed;html=1;points=[];align=center;fontSize=12;image=img/lib/mscae/Docker.svg;" vertex="1" parent="1">
          <mxGeometry x="792.7" y="-20" width="36.59" height="30" as="geometry" />
        </mxCell>
        <mxCell id="TV3zGwWv0whd9TTQY8Pc-33" value="" style="image;sketch=0;aspect=fixed;html=1;points=[];align=center;fontSize=12;image=img/lib/mscae/Docker.svg;" vertex="1" parent="1">
          <mxGeometry x="792.7" y="140" width="36.59" height="30" as="geometry" />
        </mxCell>
      </root>
    </mxGraphModel>
  </diagram>
</mxfile>
